<?xml version="1.0" standalone="no"?>
<!DOCTYPE svg PUBLIC "-//W3C//DTD SVG 20010904//EN"
 "http://www.w3.org/TR/2001/REC-SVG-20010904/DTD/svg10.dtd">
<svg version="1.0" xmlns="http://www.w3.org/2000/svg"
 width="320.000000pt" height="320.000000pt" viewBox="0 0 320.000000 320.000000"
 preserveAspectRatio="xMidYMid meet">
<metadata>
Created by potrace 1.11, written by Peter Selinger 2001-2013
</metadata>
<g transform="translate(0.000000,320.000000) scale(0.100000,-0.100000)"
fill="#000000" stroke="none">
<path d="M866 3178 c-20 -34 -18 -2816 3 -2841 18 -22 54 -21 74 1 16 17 17
131 19 1387 l3 1369 638 0 637 1 0 -1371 c0 -1315 1 -1372 18 -1387 25 -23 58
-21 75 3 20 29 19 2819 -2 2843 -12 16 -76 17 -732 17 l-719 0 -14 -22z"/>
<path d="M1194 2866 c-17 -13 -19 -29 -20 -196 -2 -231 -12 -218 166 -216 70
0 131 4 134 7 16 16 22 77 21 228 -1 147 -3 165 -20 177 -27 20 -254 20 -281
0z m181 -95 c7 -1 11 -41 11 -106 l-1 -105 -52 0 -53 0 0 103 c0 57 2 106 4
108 4 3 58 4 91 0z"/>
<path d="M1725 2866 c-18 -13 -19 -28 -19 -194 0 -233 -9 -221 157 -218 72 1
130 6 142 13 19 11 20 23 21 190 2 236 11 223 -154 223 -94 0 -133 -4 -147
-14z m195 -198 l0 -108 -53 0 -53 0 0 103 c0 113 -1 112 72 112 l34 1 0 -108z"/>
<path d="M17 2542 c-15 -17 -17 -71 -17 -568 0 -425 3 -554 12 -566 23 -27 48
-29 72 -5 l22 23 0 508 c-1 302 3 510 8 514 5 3 144 6 307 6 285 1 299 2 313
21 8 11 12 28 10 38 -9 47 -6 47 -369 47 -319 0 -343 -1 -358 -18z"/>
<path d="M2471 2546 c-20 -24 -20 -53 -1 -74 17 -18 32 -19 310 -18 161 0 297
-2 303 -6 14 -9 17 -2117 2 -2126 -25 -15 -70 2 -112 43 -86 85 -221 81 -303
-9 -24 -26 -42 -36 -63 -36 -73 0 -145 -69 -152 -148 -5 -57 29 -121 80 -150
39 -22 46 -22 302 -20 246 3 263 4 289 24 15 11 37 33 48 48 21 27 21 33 24
1238 2 1119 1 1213 -14 1230 -16 17 -40 18 -359 18 -281 0 -345 -3 -354 -14z
m402 -2238 c22 -11 53 -48 50 -58 -1 -3 6 -16 16 -28 18 -24 34 -27 89 -16 40
8 62 -9 62 -46 0 -50 -13 -52 -248 -54 -119 -1 -229 2 -245 7 -31 10 -44 45
-27 76 11 22 48 28 78 12 26 -14 61 5 77 42 27 66 93 95 148 65z"/>
<path d="M337 2222 c-15 -16 -17 -45 -17 -193 0 -230 -9 -218 158 -216 93 2
134 6 145 16 15 12 17 38 17 196 0 229 10 215 -162 215 -108 0 -127 -2 -141
-18z m189 -95 c7 -4 10 -152 5 -199 -1 -5 -25 -8 -53 -8 l-53 0 1 98 c0 54 3
103 7 108 6 10 78 11 93 1z"/>
<path d="M1189 2223 c-11 -12 -14 -60 -16 -195 -2 -227 -10 -216 160 -213 67
1 127 3 133 3 23 4 30 53 29 221 -1 158 -3 175 -20 187 -14 10 -54 14 -146 14
-105 0 -129 -3 -140 -17z m182 -92 c13 -1 15 -18 15 -103 l-1 -103 -52 -3 -53
-3 0 105 c0 112 2 115 55 110 11 -1 27 -3 36 -3z"/>
<path d="M1725 2226 c-16 -12 -18 -30 -19 -182 -2 -205 -1 -210 33 -223 35
-13 241 -9 266 6 19 11 20 23 21 190 2 236 11 223 -154 223 -92 0 -133 -4
-147 -14z m193 -199 l3 -107 -54 0 -53 0 2 103 c1 56 2 104 3 107 0 3 22 5 48
4 l48 0 3 -107z"/>
<path d="M2577 2222 c-15 -16 -17 -45 -17 -200 0 -177 1 -182 23 -196 31 -19
257 -17 280 3 15 12 17 38 17 196 0 229 10 215 -162 215 -108 0 -127 -2 -141
-18z m191 -99 c4 -6 7 -53 6 -105 l0 -93 -54 0 -54 0 1 99 c0 61 5 101 12 105
16 11 82 6 89 -6z"/>
<path d="M337 1582 c-12 -13 -17 -37 -17 -86 0 -81 11 -106 48 -106 40 0 52
12 57 55 3 21 7 41 10 43 3 3 23 6 46 6 28 1 43 -3 48 -14 3 -8 6 -72 6 -143
-1 -111 1 -130 17 -147 23 -24 36 -25 66 -4 21 15 22 20 22 198 0 230 10 216
-162 216 -108 0 -127 -2 -141 -18z"/>
<path d="M1186 1578 c-10 -18 -13 -63 -12 -195 1 -224 -8 -211 164 -209 72 1
133 4 137 7 15 16 21 78 20 228 -1 147 -3 165 -20 177 -14 10 -54 14 -147 14
-121 0 -128 -1 -142 -22z m189 -87 c7 -1 11 -41 11 -106 l-1 -105 -52 0 -53 0
0 103 c0 57 2 106 4 108 4 3 58 4 91 0z"/>
<path d="M1725 1586 c-18 -13 -19 -28 -19 -194 0 -233 -9 -221 157 -218 72 1
130 6 142 13 19 11 20 23 21 190 2 236 11 223 -154 223 -94 0 -133 -4 -147
-14z m195 -198 l0 -108 -53 0 -53 0 0 103 c0 113 -1 112 72 112 l34 1 0 -108z"/>
<path d="M2577 1582 c-15 -16 -17 -45 -17 -200 0 -177 1 -182 23 -196 31 -19
257 -17 280 3 15 12 17 38 17 196 0 229 10 215 -162 215 -108 0 -127 -2 -141
-18z m191 -99 c4 -6 7 -53 6 -105 l0 -93 -54 0 -54 0 1 99 c0 61 5 101 12 105
16 11 82 6 89 -6z"/>
<path d="M202 1263 c-40 -19 -85 -75 -112 -138 -53 -124 -88 -334 -85 -510 1
-96 5 -116 26 -154 30 -55 91 -108 141 -123 21 -6 38 -14 39 -17 0 -3 1 -69 2
-147 2 -151 9 -174 52 -174 48 0 55 25 55 183 0 135 1 147 18 147 22 0 99 48
129 81 45 49 65 115 64 208 -1 47 -3 100 -5 116 -2 17 -7 59 -11 95 -12 114
-46 244 -81 315 -59 117 -145 161 -232 118z m107 -116 c17 -19 84 -182 80
-195 -1 -2 10 -70 17 -107 7 -36 15 -128 18 -208 3 -64 -1 -86 -18 -120 -64
-127 -248 -113 -291 23 -17 52 -5 218 26 373 44 219 103 302 168 234z"/>
<path d="M1088 949 c-11 -6 -18 -22 -18 -38 0 -48 24 -60 120 -58 l85 2 3
-250 c3 -269 6 -285 58 -285 47 0 51 22 50 281 -1 138 3 243 8 247 16 9 408 8
414 -2 3 -5 6 -118 6 -251 1 -258 4 -275 51 -275 12 0 29 8 38 18 15 16 17 50
17 265 0 136 3 247 8 248 4 0 47 1 95 2 95 3 107 9 107 59 0 17 -7 31 -19 38
-27 14 -999 13 -1023 -1z"/>
<path d="M2577 942 c-15 -16 -17 -45 -17 -200 0 -171 1 -182 21 -195 28 -20
258 -18 283 2 14 12 16 39 16 196 0 229 10 215 -162 215 -108 0 -127 -2 -141
-18z m191 -99 c4 -6 7 -53 6 -105 l0 -93 -54 0 -54 0 1 99 c0 61 5 101 12 105
16 11 82 6 89 -6z"/>
<path d="M1557 610 c-18 -29 -18 -30 8 -56 19 -19 31 -23 48 -18 28 9 37 22
37 56 0 52 -66 65 -93 18z"/>
<path d="M795 210 c-40 -7 -52 -37 -49 -117 2 -50 7 -71 20 -80 41 -30 83 -6
87 52 l4 40 719 1 c395 0 729 4 740 8 28 9 37 45 18 73 -8 13 -18 24 -22 24
-26 4 -1494 3 -1517 -1z"/>
</g>
</svg>
